<?xml version="1.0" standalone="no"?>
<!DOCTYPE svg PUBLIC "-//W3C//DTD SVG 20010904//EN"
 "http://www.w3.org/TR/2001/REC-SVG-20010904/DTD/svg10.dtd">
<svg version="1.0" xmlns="http://www.w3.org/2000/svg"
 width="225.000000pt" height="225.000000pt" viewBox="0 0 225.000000 225.000000"
 preserveAspectRatio="xMidYMid meet">

<g transform="translate(0.000000,225.000000) scale(0.100000,-0.100000)"
fill="#000000" stroke="none">
<path d="M448 1276 l3 -205 30 -25 c16 -14 125 -82 241 -152 217 -130 253
-144 303 -117 15 9 12 14 -29 42 -25 18 -46 36 -46 41 0 24 25 17 88 -25 38
-25 79 -45 91 -45 29 0 83 28 76 40 -3 5 -40 30 -83 56 -92 57 -113 74 -106
85 10 17 31 8 149 -66 65 -41 128 -75 139 -75 12 1 40 11 64 23 l43 23 -155
102 c-88 57 -156 108 -156 117 0 24 20 18 89 -29 201 -133 287 -186 306 -186
22 0 139 69 131 77 -2 3 -24 9 -48 14 -24 6 -124 57 -224 115 -219 126 -219
126 -345 53 -81 -47 -93 -51 -135 -46 -39 4 -55 13 -93 51 -40 40 -44 48 -31
60 8 7 86 59 172 113 87 55 154 103 151 107 -17 17 -92 4 -153 -26 -57 -28
-75 -32 -151 -32 -84 -1 -87 0 -202 57 -64 31 -118 57 -119 57 -2 0 -2 -92 0
-204z"/>
<path d="M1680 1423 c-110 -55 -118 -57 -195 -58 -70 0 -88 4 -147 33 -100 48
-150 44 -252 -22 -28 -18 -91 -59 -141 -90 -168 -108 -156 -98 -137 -120 25
-28 72 -45 101 -36 14 4 57 26 95 49 44 27 85 44 115 48 41 5 56 0 143 -46
119 -63 174 -68 263 -24 40 20 58 24 66 16 15 -15 -56 -62 -118 -78 l-45 -11
70 -37 c111 -59 202 -59 271 -1 l30 25 3 205 c2 112 1 204 -2 204 -3 -1 -57
-26 -120 -57z"/>
</g>
</svg>
